<?xml version="1.0" encoding="UTF-8"?>
<svg xmlns="http://www.w3.org/2000/svg" xmlns:xlink="http://www.w3.org/1999/xlink" width="1145pt" height="105.54pt" viewBox="0 0 1145 105.54" version="1.1">
<defs>
<clipPath id="clip1">
  <path d="M 289 0 L 380 0 L 380 105.539063 L 289 105.539063 Z M 289 0 "/>
</clipPath>
<clipPath id="clip2">
  <path d="M 651 38 L 807 38 L 807 105.539063 L 651 105.539063 Z M 651 38 "/>
</clipPath>
<clipPath id="clip3">
  <path d="M 820 38 L 976 38 L 976 105.539063 L 820 105.539063 Z M 820 38 "/>
</clipPath>
<clipPath id="clip4">
  <path d="M 157 0 L 326 0 L 326 105.539063 L 157 105.539063 Z M 157 0 "/>
</clipPath>
<clipPath id="clip5">
  <path d="M 408 0 L 577 0 L 577 105.539063 L 408 105.539063 Z M 408 0 "/>
</clipPath>
<clipPath id="clip6">
  <path d="M 989 0 L 1080 0 L 1080 105.539063 L 989 105.539063 Z M 989 0 "/>
</clipPath>
<clipPath id="clip7">
  <path d="M 0 0 L 156 0 L 156 105.539063 L 0 105.539063 Z M 0 0 "/>
</clipPath>
</defs>
<g id="surface1">
<path style=" stroke:none;fill-rule:nonzero;fill:rgb(100%,100%,100%);fill-opacity:1;" d="M 820.253906 0.00390625 L 820.253906 25.488281 L 975.785156 25.488281 L 975.785156 5.132813 C 975.785156 2.300781 973.488281 0.00390625 970.652344 0.00390625 "/>
<g clip-path="url(#clip1)" clip-rule="nonzero">
<path style=" stroke:none;fill-rule:nonzero;fill:rgb(100%,100%,100%);fill-opacity:1;" d="M 379.363281 5.15625 C 379.363281 2.324219 377.0625 0.0234375 374.230469 0.0234375 L 289.015625 0 L 289.015625 25.488281 L 353.871094 25.488281 L 353.871094 105.539063 L 379.371094 105.539063 "/>
</g>
<g clip-path="url(#clip2)" clip-rule="nonzero">
<path style=" stroke:none;fill-rule:nonzero;fill:rgb(100%,100%,100%);fill-opacity:1;" d="M 781.039063 80.054688 L 676.492188 80.054688 L 676.492188 63.65625 L 781.039063 63.65625 Z M 656.132813 38.171875 C 653.296875 38.171875 651 40.46875 651 43.304688 L 651 105.539063 L 806.53125 105.539063 L 806.53125 43.304688 C 806.53125 40.46875 804.234375 38.171875 801.398438 38.171875 "/>
</g>
<path style=" stroke:none;fill-rule:nonzero;fill:rgb(100%,100%,100%);fill-opacity:1;" d="M 782.675781 0.00390625 L 651 0.00390625 L 651 25.488281 L 770.164063 25.488281 L 770.164063 38.292969 L 790.523438 38.292969 C 793.359375 38.292969 795.65625 35.996094 795.65625 33.160156 L 795.65625 5.132813 C 795.65625 2.300781 793.359375 0.00390625 790.523438 0.00390625 "/>
<g clip-path="url(#clip3)" clip-rule="nonzero">
<path style=" stroke:none;fill-rule:nonzero;fill:rgb(100%,100%,100%);fill-opacity:1;" d="M 845.742188 80.054688 L 845.742188 63.65625 L 964.910156 63.65625 L 964.910156 38.171875 L 820.253906 38.171875 L 820.253906 105.539063 L 975.785156 105.539063 L 975.785156 80.054688 "/>
</g>
<g clip-path="url(#clip4)" clip-rule="nonzero">
<path style=" stroke:none;fill-rule:nonzero;fill:rgb(100%,100%,100%);fill-opacity:1;" d="M 247.441406 0.00390625 L 236.234375 0.00390625 L 203.164063 44.570313 C 200.652344 47.957031 203.070313 52.757813 207.285156 52.757813 L 228.710938 52.769531 L 228.71875 52.757813 L 228.730469 52.757813 L 241.757813 35.152344 L 262.886719 63.492188 L 189.15625 63.492188 L 157.988281 105.539063 L 189.625 105.539063 L 201.894531 88.976563 L 281.78125 88.976563 L 294.050781 105.539063 L 325.6875 105.539063 "/>
</g>
<g clip-path="url(#clip5)" clip-rule="nonzero">
<path style=" stroke:none;fill-rule:nonzero;fill:rgb(100%,100%,100%);fill-opacity:1;" d="M 498.335938 0.00390625 L 487.132813 0.00390625 L 454.0625 44.570313 C 451.550781 47.957031 453.96875 52.757813 458.183594 52.757813 L 479.605469 52.769531 L 479.613281 52.757813 L 479.628906 52.757813 L 492.65625 35.152344 L 513.785156 63.492188 L 440.054688 63.492188 L 408.882813 105.539063 L 440.519531 105.539063 L 452.789063 88.976563 L 532.679688 88.976563 L 544.949219 105.539063 L 576.585938 105.539063 "/>
</g>
<path style=" stroke:none;fill-rule:nonzero;fill:rgb(100%,100%,100%);fill-opacity:1;" d="M 390.160156 25.488281 L 444.609375 25.488281 L 444.609375 0 L 390.160156 0 Z M 390.160156 25.488281 "/>
<g clip-path="url(#clip6)" clip-rule="nonzero">
<path style=" stroke:none;fill-rule:nonzero;fill:rgb(100%,100%,100%);fill-opacity:1;" d="M 1079.75 5.15625 C 1079.75 2.324219 1077.449219 0.0234375 1074.621094 0.0234375 L 989.40625 0 L 989.40625 25.488281 L 1054.261719 25.488281 L 1054.261719 105.539063 L 1079.761719 105.539063 "/>
</g>
<path style=" stroke:none;fill-rule:nonzero;fill:rgb(100%,100%,100%);fill-opacity:1;" d="M 1090.550781 25.488281 L 1145 25.488281 L 1145 0 L 1090.550781 0 Z M 1090.550781 25.488281 "/>
<g clip-path="url(#clip7)" clip-rule="nonzero">
<path style=" stroke:none;fill-rule:nonzero;fill:rgb(100%,100%,100%);fill-opacity:1;" d="M 150.398438 0.00390625 L 0 0.00390625 L 0 25.488281 L 130.007813 25.488281 L 130.039063 70.5 L 122.921875 80.054688 L 25.523438 80.054688 L 25.523438 38.285156 L 5.132813 38.285156 C 2.296875 38.285156 0 40.582031 0 43.417969 L 0 105.539063 L 135.714844 105.539063 L 155.53125 78.757813 L 155.53125 5.132813 C 155.53125 2.300781 153.234375 0.00390625 150.398438 0.00390625 "/>
</g>
</g>
</svg>
